<mxfile host="app.diagrams.net" modified="2021-05-15T08:49:42.139Z" agent="5.0 (Windows NT 10.0; Win64; x64) AppleWebKit/537.36 (KHTML, like Gecko) Chrome/89.0.4389.90 Safari/537.36" etag="Nda9oB_ZPpATnmq3p7_W" version="14.6.12" type="github">
  <diagram name="Page-1" id="e7e014a7-5840-1c2e-5031-d8a46d1fe8dd">
    <mxGraphModel dx="782" dy="381" grid="1" gridSize="10" guides="1" tooltips="1" connect="1" arrows="1" fold="1" page="1" pageScale="1" pageWidth="1169" pageHeight="826" background="#ffffff" math="0" shadow="0">
      <root>
        <mxCell id="0" />
        <mxCell id="1" parent="0" />
        <mxCell id="sHo7rCu5BnpLvMFZvAdc-41" value="clib_socket_t&#xa;" style="swimlane;fontStyle=1;align=center;verticalAlign=top;childLayout=stackLayout;horizontal=1;startSize=26;horizontalStack=0;resizeParent=1;resizeParentMax=0;resizeLast=0;collapsible=1;marginBottom=0;fillColor=#6a00ff;strokeColor=#3700CC;fontColor=#ffffff;" parent="1" vertex="1">
          <mxGeometry x="560" y="110" width="230" height="416" as="geometry" />
        </mxCell>
        <mxCell id="sHo7rCu5BnpLvMFZvAdc-42" value="i32 fd ,socket 文件描述符" style="text;strokeColor=#d79b00;fillColor=#ffe6cc;align=left;verticalAlign=top;spacingLeft=4;spacingRight=4;overflow=hidden;rotatable=0;points=[[0,0.5],[1,0.5]];portConstraint=eastwest;" parent="sHo7rCu5BnpLvMFZvAdc-41" vertex="1">
          <mxGeometry y="26" width="230" height="26" as="geometry" />
        </mxCell>
        <mxCell id="sHo7rCu5BnpLvMFZvAdc-44" value="char *config，配置信息 host：port" style="text;strokeColor=#d79b00;fillColor=#ffe6cc;align=left;verticalAlign=top;spacingLeft=4;spacingRight=4;overflow=hidden;rotatable=0;points=[[0,0.5],[1,0.5]];portConstraint=eastwest;" parent="sHo7rCu5BnpLvMFZvAdc-41" vertex="1">
          <mxGeometry y="52" width="230" height="26" as="geometry" />
        </mxCell>
        <mxCell id="sHo7rCu5BnpLvMFZvAdc-45" value="u32 flags，初始化使用flag类型" style="text;fillColor=#ffe6cc;align=left;verticalAlign=top;spacingLeft=4;spacingRight=4;overflow=hidden;rotatable=0;points=[[0,0.5],[1,0.5]];portConstraint=eastwest;strokeColor=#d79b00;" parent="sHo7rCu5BnpLvMFZvAdc-41" vertex="1">
          <mxGeometry y="78" width="230" height="26" as="geometry" />
        </mxCell>
        <mxCell id="sHo7rCu5BnpLvMFZvAdc-46" value="u8 *tx_buffer，报文发送缓存区" style="text;fillColor=#ffe6cc;align=left;verticalAlign=top;spacingLeft=4;spacingRight=4;overflow=hidden;rotatable=0;points=[[0,0.5],[1,0.5]];portConstraint=eastwest;strokeColor=#d79b00;" parent="sHo7rCu5BnpLvMFZvAdc-41" vertex="1">
          <mxGeometry y="104" width="230" height="26" as="geometry" />
        </mxCell>
        <mxCell id="sHo7rCu5BnpLvMFZvAdc-47" value="u8 *rx_buffer，报文接收缓存区" style="text;fillColor=#ffe6cc;align=left;verticalAlign=top;spacingLeft=4;spacingRight=4;overflow=hidden;rotatable=0;points=[[0,0.5],[1,0.5]];portConstraint=eastwest;strokeColor=#d79b00;" parent="sHo7rCu5BnpLvMFZvAdc-41" vertex="1">
          <mxGeometry y="130" width="230" height="26" as="geometry" />
        </mxCell>
        <mxCell id="sHo7rCu5BnpLvMFZvAdc-48" value="struct sockaddr_in peer，对端socket信息" style="text;fillColor=#ffe6cc;align=left;verticalAlign=top;spacingLeft=4;spacingRight=4;overflow=hidden;rotatable=0;points=[[0,0.5],[1,0.5]];portConstraint=eastwest;strokeColor=#d79b00;" parent="sHo7rCu5BnpLvMFZvAdc-41" vertex="1">
          <mxGeometry y="156" width="230" height="26" as="geometry" />
        </mxCell>
        <mxCell id="sHo7rCu5BnpLvMFZvAdc-49" value="pid_t pid，" style="text;fillColor=#ffe6cc;align=left;verticalAlign=top;spacingLeft=4;spacingRight=4;overflow=hidden;rotatable=0;points=[[0,0.5],[1,0.5]];portConstraint=eastwest;strokeColor=#d79b00;" parent="sHo7rCu5BnpLvMFZvAdc-41" vertex="1">
          <mxGeometry y="182" width="230" height="26" as="geometry" />
        </mxCell>
        <mxCell id="sHo7rCu5BnpLvMFZvAdc-50" value="uid_t uid，" style="text;fillColor=#ffe6cc;align=left;verticalAlign=top;spacingLeft=4;spacingRight=4;overflow=hidden;rotatable=0;points=[[0,0.5],[1,0.5]];portConstraint=eastwest;strokeColor=#d79b00;" parent="sHo7rCu5BnpLvMFZvAdc-41" vertex="1">
          <mxGeometry y="208" width="230" height="26" as="geometry" />
        </mxCell>
        <mxCell id="sHo7rCu5BnpLvMFZvAdc-51" value="gid_t gid，" style="text;fillColor=#ffe6cc;align=left;verticalAlign=top;spacingLeft=4;spacingRight=4;overflow=hidden;rotatable=0;points=[[0,0.5],[1,0.5]];portConstraint=eastwest;strokeColor=#d79b00;" parent="sHo7rCu5BnpLvMFZvAdc-41" vertex="1">
          <mxGeometry y="234" width="230" height="26" as="geometry" />
        </mxCell>
        <mxCell id="sHo7rCu5BnpLvMFZvAdc-52" value="write_func，socket发送处理函数" style="text;fillColor=#ffe6cc;align=left;verticalAlign=top;spacingLeft=4;spacingRight=4;overflow=hidden;rotatable=0;points=[[0,0.5],[1,0.5]];portConstraint=eastwest;strokeColor=#d79b00;" parent="sHo7rCu5BnpLvMFZvAdc-41" vertex="1">
          <mxGeometry y="260" width="230" height="26" as="geometry" />
        </mxCell>
        <mxCell id="sHo7rCu5BnpLvMFZvAdc-53" value="read_func：socket接收处理函数" style="text;fillColor=#ffe6cc;align=left;verticalAlign=top;spacingLeft=4;spacingRight=4;overflow=hidden;rotatable=0;points=[[0,0.5],[1,0.5]];portConstraint=eastwest;strokeColor=#d79b00;" parent="sHo7rCu5BnpLvMFZvAdc-41" vertex="1">
          <mxGeometry y="286" width="230" height="26" as="geometry" />
        </mxCell>
        <mxCell id="sHo7rCu5BnpLvMFZvAdc-54" value="close_func：socket关闭函数" style="text;fillColor=#ffe6cc;align=left;verticalAlign=top;spacingLeft=4;spacingRight=4;overflow=hidden;rotatable=0;points=[[0,0.5],[1,0.5]];portConstraint=eastwest;strokeColor=#d79b00;" parent="sHo7rCu5BnpLvMFZvAdc-41" vertex="1">
          <mxGeometry y="312" width="230" height="26" as="geometry" />
        </mxCell>
        <mxCell id="sHo7rCu5BnpLvMFZvAdc-55" value="recvmsg_func：socket接收函数" style="text;fillColor=#ffe6cc;align=left;verticalAlign=top;spacingLeft=4;spacingRight=4;overflow=hidden;rotatable=0;points=[[0,0.5],[1,0.5]];portConstraint=eastwest;strokeColor=#d79b00;" parent="sHo7rCu5BnpLvMFZvAdc-41" vertex="1">
          <mxGeometry y="338" width="230" height="26" as="geometry" />
        </mxCell>
        <mxCell id="sHo7rCu5BnpLvMFZvAdc-56" value="sendmsg_func：socket发送函数" style="text;fillColor=#ffe6cc;align=left;verticalAlign=top;spacingLeft=4;spacingRight=4;overflow=hidden;rotatable=0;points=[[0,0.5],[1,0.5]];portConstraint=eastwest;strokeColor=#d79b00;" parent="sHo7rCu5BnpLvMFZvAdc-41" vertex="1">
          <mxGeometry y="364" width="230" height="26" as="geometry" />
        </mxCell>
        <mxCell id="sHo7rCu5BnpLvMFZvAdc-57" value="uword private_data，私有数据" style="text;strokeColor=#d79b00;fillColor=#ffe6cc;align=left;verticalAlign=top;spacingLeft=4;spacingRight=4;overflow=hidden;rotatable=0;points=[[0,0.5],[1,0.5]];portConstraint=eastwest;" parent="sHo7rCu5BnpLvMFZvAdc-41" vertex="1">
          <mxGeometry y="390" width="230" height="26" as="geometry" />
        </mxCell>
        <mxCell id="TibwtfmMf2A8SIVAAXav-1" value="linux_epoll_main_t" style="swimlane;fontStyle=1;align=center;verticalAlign=top;childLayout=stackLayout;horizontal=1;startSize=26;horizontalStack=0;resizeParent=1;resizeParentMax=0;resizeLast=0;collapsible=1;marginBottom=0;fillColor=#ffe6cc;strokeColor=#d79b00;" vertex="1" parent="1">
          <mxGeometry x="240" y="130" width="210" height="156" as="geometry" />
        </mxCell>
        <mxCell id="TibwtfmMf2A8SIVAAXav-2" value="int epoll_fd" style="text;strokeColor=#b85450;fillColor=#f8cecc;align=left;verticalAlign=top;spacingLeft=4;spacingRight=4;overflow=hidden;rotatable=0;points=[[0,0.5],[1,0.5]];portConstraint=eastwest;" vertex="1" parent="TibwtfmMf2A8SIVAAXav-1">
          <mxGeometry y="26" width="210" height="26" as="geometry" />
        </mxCell>
        <mxCell id="TibwtfmMf2A8SIVAAXav-4" value="struct epoll_event *epoll_events" style="text;strokeColor=#b85450;fillColor=#f8cecc;align=left;verticalAlign=top;spacingLeft=4;spacingRight=4;overflow=hidden;rotatable=0;points=[[0,0.5],[1,0.5]];portConstraint=eastwest;" vertex="1" parent="TibwtfmMf2A8SIVAAXav-1">
          <mxGeometry y="52" width="210" height="26" as="geometry" />
        </mxCell>
        <mxCell id="TibwtfmMf2A8SIVAAXav-5" value="int n_epoll_fds" style="text;fillColor=#f8cecc;align=left;verticalAlign=top;spacingLeft=4;spacingRight=4;overflow=hidden;rotatable=0;points=[[0,0.5],[1,0.5]];portConstraint=eastwest;strokeColor=#b85450;" vertex="1" parent="TibwtfmMf2A8SIVAAXav-1">
          <mxGeometry y="78" width="210" height="26" as="geometry" />
        </mxCell>
        <mxCell id="TibwtfmMf2A8SIVAAXav-6" value="u64 epoll_files_ready" style="text;fillColor=#f8cecc;align=left;verticalAlign=top;spacingLeft=4;spacingRight=4;overflow=hidden;rotatable=0;points=[[0,0.5],[1,0.5]];portConstraint=eastwest;strokeColor=#b85450;" vertex="1" parent="TibwtfmMf2A8SIVAAXav-1">
          <mxGeometry y="104" width="210" height="26" as="geometry" />
        </mxCell>
        <mxCell id="TibwtfmMf2A8SIVAAXav-7" value="u64 epoll_waits" style="text;fillColor=#f8cecc;align=left;verticalAlign=top;spacingLeft=4;spacingRight=4;overflow=hidden;rotatable=0;points=[[0,0.5],[1,0.5]];portConstraint=eastwest;strokeColor=#b85450;" vertex="1" parent="TibwtfmMf2A8SIVAAXav-1">
          <mxGeometry y="130" width="210" height="26" as="geometry" />
        </mxCell>
      </root>
    </mxGraphModel>
  </diagram>
</mxfile>
